<svg xmlns="http://www.w3.org/2000/svg" xmlns:xlink="http://www.w3.org/1999/xlink" width="500" zoomAndPan="magnify" viewBox="0 0 375 374.999991" height="500" preserveAspectRatio="xMidYMid meet" version="1.0"><defs><g/><clipPath id="0b6b442a0a"><path d="M 225 14.453125 L 241 14.453125 L 241 30 L 225 30 Z M 225 14.453125 " clip-rule="nonzero"/></clipPath></defs><path fill="#004aad" d="M 221.828125 216.746094 L 220.804688 216.503906 C 221.046875 215.492188 221.257812 214.492188 221.441406 213.515625 C 221.597656 212.523438 221.703125 211.5 221.800781 210.527344 C 221.886719 209.542969 221.964844 208.582031 222 207.636719 C 222 206.671875 221.972656 205.707031 221.925781 204.761719 L 221.925781 204.542969 C 221.925781 204.542969 222.058594 204.378906 222.058594 204.378906 C 228.605469 197.195312 232.363281 187.460938 232.382812 177.664062 L 233.433594 177.664062 C 233.414062 187.640625 229.609375 197.5625 222.984375 204.917969 C 223.023438 205.804688 223.050781 206.710938 223.050781 207.644531 C 223.015625 208.628906 222.945312 209.613281 222.851562 210.613281 C 222.753906 211.617188 222.648438 212.660156 222.484375 213.691406 C 222.292969 214.703125 222.078125 215.703125 221.828125 216.738281 Z M 221.828125 216.746094 " fill-opacity="1" fill-rule="nonzero"/><path fill="#004aad" d="M 223.84375 207.445312 C 231.429688 199.519531 235.769531 188.65625 235.757812 177.683594 L 234.707031 177.683594 C 234.6875 188.027344 230.765625 198.257812 223.824219 205.910156 Z M 223.84375 207.445312 " fill-opacity="1" fill-rule="nonzero"/><path fill="#004aad" d="M 223.832031 210.613281 C 232.789062 202.191406 238.082031 189.996094 237.996094 177.675781 L 236.945312 177.675781 C 236.984375 189.320312 232.210938 200.859375 223.957031 209.074219 Z M 223.832031 210.613281 " fill-opacity="1" fill-rule="nonzero"/><path fill="#aa068b" d="M 192.417969 223.1875 C 184.464844 223.1875 176.558594 221.113281 169.734375 217.0625 L 170.273438 216.15625 C 181.222656 222.65625 195.046875 223.9375 207.234375 219.582031 L 207.425781 219.511719 L 207.609375 219.589844 C 208.824219 220.082031 210.105469 220.59375 211.40625 220.996094 C 212.632812 221.34375 213.921875 221.671875 215.226562 221.972656 C 219.554688 219.695312 223.265625 217.101562 226.242188 214.25 C 227.527344 213.167969 228.644531 211.90625 229.734375 210.683594 C 230.15625 210.210938 230.570312 209.738281 231.003906 209.273438 C 231.324219 208.832031 231.691406 208.359375 232.046875 207.878906 C 233.050781 206.554688 234.089844 205.1875 234.898438 203.722656 C 239.632812 196.203125 242.199219 187.199219 242.304688 177.664062 L 243.355469 177.664062 C 243.238281 187.410156 240.625 196.609375 235.804688 204.261719 C 234.96875 205.765625 233.90625 207.164062 232.886719 208.511719 C 232.527344 208.984375 232.164062 209.46875 231.816406 209.949219 C 231.351562 210.449219 230.9375 210.921875 230.523438 211.386719 C 229.414062 212.640625 228.269531 213.929688 226.949219 215.03125 C 223.882812 217.96875 220.035156 220.648438 215.542969 222.992188 L 215.371094 223.078125 L 215.1875 223.039062 C 213.796875 222.734375 212.429688 222.386719 211.109375 222.007812 C 209.828125 221.605469 208.582031 221.113281 207.40625 220.640625 C 202.566406 222.347656 197.488281 223.175781 192.425781 223.175781 Z M 192.417969 223.1875 " fill-opacity="1" fill-rule="nonzero"/><path fill="#aa068b" d="M 204.253906 219.628906 C 204.988281 219.453125 205.710938 219.253906 206.402344 218.972656 L 205.246094 215.542969 C 204.609375 215.8125 203.945312 215.996094 203.28125 216.140625 Z M 204.253906 219.628906 " fill-opacity="1" fill-rule="nonzero"/><path fill="#aa068b" d="M 199.65625 220.640625 C 200.398438 220.503906 201.148438 220.46875 201.875 220.234375 L 201.09375 216.699219 C 200.4375 216.910156 199.742188 216.9375 199.058594 217.0625 Z M 199.65625 220.640625 " fill-opacity="1" fill-rule="nonzero"/><path fill="#aa068b" d="M 194.980469 221.152344 C 195.734375 221.101562 196.484375 221.101562 197.226562 221.007812 L 196.832031 217.402344 C 196.148438 217.496094 195.453125 217.480469 194.769531 217.527344 L 194.972656 221.140625 Z M 194.980469 221.152344 " fill-opacity="1" fill-rule="nonzero"/><path fill="#aa068b" d="M 190.277344 221.171875 L 192.53125 221.277344 L 192.523438 217.660156 L 190.460938 217.554688 Z M 190.277344 221.171875 " fill-opacity="1" fill-rule="nonzero"/><path fill="#aa068b" d="M 185.601562 220.6875 L 187.828125 221.027344 L 188.203125 217.421875 L 186.167969 217.113281 Z M 185.601562 220.6875 " fill-opacity="1" fill-rule="nonzero"/><path fill="#aa068b" d="M 181.003906 219.707031 L 183.179688 220.265625 L 183.953125 216.726562 L 181.949219 216.207031 Z M 181.003906 219.707031 " fill-opacity="1" fill-rule="nonzero"/><path fill="#aa068b" d="M 176.53125 218.230469 L 178.648438 219 L 179.796875 215.570312 L 177.859375 214.855469 Z M 176.53125 218.230469 " fill-opacity="1" fill-rule="nonzero"/><path fill="#aa068b" d="M 172.25 216.285156 L 174.273438 217.265625 L 175.789062 213.96875 L 173.925781 213.082031 Z M 172.25 216.285156 " fill-opacity="1" fill-rule="nonzero"/><path fill="#aa068b" d="M 170.351562 219.890625 C 181.726562 225.894531 195.53125 226.972656 207.707031 222.828125 L 208.390625 224.851562 C 195.675781 229.183594 181.253906 228.0625 169.367188 221.789062 L 170.359375 219.898438 Z M 170.351562 219.890625 " fill-opacity="1" fill-rule="nonzero"/><path fill="#004aad" d="M 172.019531 213.121094 C 163.292969 208.109375 156.585938 199.855469 153.578125 190.476562 C 151.910156 189.617188 150.328125 188.585938 148.726562 187.515625 C 147.039062 186.320312 145.507812 184.960938 143.9375 183.566406 L 144.640625 182.785156 C 146.183594 184.164062 147.695312 185.503906 149.316406 186.648438 C 150.945312 187.730469 152.554688 188.78125 154.242188 189.636719 L 154.445312 189.734375 L 154.511719 189.945312 C 157.402344 199.171875 163.976562 207.28125 172.539062 212.207031 Z M 172.019531 213.121094 " fill-opacity="1" fill-rule="nonzero"/><path fill="#004aad" d="M 150.992188 189.976562 C 154.078125 200.484375 161.355469 209.679688 170.851562 215.136719 L 171.382812 214.230469 C 162.445312 209.09375 155.425781 200.578125 152.324219 190.726562 C 151.851562 190.496094 151.417969 190.246094 150.992188 189.976562 Z M 150.992188 189.976562 " fill-opacity="1" fill-rule="nonzero"/><path fill="#004aad" d="M 148.273438 188.367188 C 151.109375 200.339844 159.082031 210.941406 169.742188 217.0625 L 170.273438 216.15625 C 160.191406 210.375 152.5625 200.472656 149.59375 189.242188 L 148.285156 188.367188 Z M 148.273438 188.367188 " fill-opacity="1" fill-rule="nonzero"/><path fill="#aa068b" d="M 167.0625 221.71875 C 163.523438 219.78125 160.027344 217.0625 156.054688 213.167969 C 153.015625 210.074219 150.308594 206.410156 147.753906 201.957031 C 143.222656 193.417969 141.140625 184.09375 141.730469 174.976562 L 141.730469 174.800781 C 141.730469 174.800781 141.855469 174.667969 141.855469 174.667969 C 143.773438 172.421875 146.019531 170.523438 147.800781 169.113281 C 150.066406 156.4375 158.261719 144.925781 169.742188 138.285156 L 170.273438 139.191406 C 158.996094 145.71875 150.972656 157.035156 148.804688 169.492188 L 148.765625 169.683594 L 148.613281 169.808594 C 146.875 171.175781 144.660156 173.027344 142.769531 175.214844 C 142.238281 184.085938 144.285156 193.148438 148.679688 201.445312 C 151.175781 205.804688 153.835938 209.398438 156.796875 212.425781 C 160.691406 216.246094 164.121094 218.90625 167.574219 220.796875 L 167.074219 221.710938 Z M 167.0625 221.71875 " fill-opacity="1" fill-rule="nonzero"/><path fill="#aa068b" d="M 150.269531 166.898438 C 150.097656 167.628906 149.875 168.34375 149.730469 169.085938 L 153.289062 169.796875 C 153.421875 169.125 153.625 168.46875 153.789062 167.792969 L 150.28125 166.898438 Z M 150.269531 166.898438 " fill-opacity="1" fill-rule="nonzero"/><path fill="#aa068b" d="M 151.675781 162.414062 L 150.898438 164.527344 L 154.355469 165.613281 L 155.070312 163.6875 Z M 151.675781 162.414062 " fill-opacity="1" fill-rule="nonzero"/><path fill="#aa068b" d="M 153.558594 158.105469 L 152.574219 160.128906 L 155.890625 161.585938 L 156.785156 159.734375 Z M 153.558594 158.105469 " fill-opacity="1" fill-rule="nonzero"/><path fill="#aa068b" d="M 155.878906 154.019531 L 154.714844 155.9375 L 157.855469 157.75 L 158.925781 155.984375 Z M 155.878906 154.019531 " fill-opacity="1" fill-rule="nonzero"/><path fill="#aa068b" d="M 158.636719 150.191406 L 157.289062 152.003906 L 160.21875 154.144531 L 161.453125 152.484375 Z M 158.636719 150.191406 " fill-opacity="1" fill-rule="nonzero"/><path fill="#aa068b" d="M 161.800781 146.699219 C 161.269531 147.230469 160.789062 147.808594 160.265625 148.359375 L 162.945312 150.796875 C 163.417969 150.296875 163.851562 149.765625 164.34375 149.273438 Z M 161.800781 146.699219 " fill-opacity="1" fill-rule="nonzero"/><path fill="#aa068b" d="M 165.328125 143.585938 C 164.699219 144.011719 164.179688 144.550781 163.613281 145.050781 L 166.011719 147.761719 C 166.523438 147.308594 167.003906 146.808594 167.582031 146.421875 Z M 165.328125 143.585938 " fill-opacity="1" fill-rule="nonzero"/><path fill="#aa068b" d="M 169.164062 140.867188 C 168.519531 141.246094 167.882812 141.640625 167.292969 142.121094 L 169.386719 145.070312 C 169.917969 144.636719 170.503906 144.273438 171.101562 143.925781 Z M 169.164062 140.867188 " fill-opacity="1" fill-rule="nonzero"/><path fill="#aa068b" d="M 166.984375 137.425781 C 156.121094 144.261719 148.167969 155.636719 145.730469 168.285156 L 143.636719 167.871094 C 146.191406 154.652344 154.492188 142.769531 165.839844 135.632812 L 166.984375 137.4375 Z M 166.984375 137.425781 " fill-opacity="1" fill-rule="nonzero"/><path fill="#004aad" d="M 172.546875 143.144531 L 172.019531 142.238281 C 180.53125 137.28125 191.027344 135.597656 200.851562 137.601562 C 202.308594 136.714844 204.023438 135.710938 205.835938 134.863281 C 207.675781 134.082031 209.652344 133.28125 211.648438 132.695312 L 211.949219 133.707031 C 210 134.285156 208.0625 135.066406 206.257812 135.828125 C 204.429688 136.675781 202.683594 137.707031 201.21875 138.601562 L 201.042969 138.710938 L 200.84375 138.671875 C 191.222656 136.664062 180.898438 138.285156 172.546875 143.152344 Z M 172.546875 143.144531 " fill-opacity="1" fill-rule="nonzero"/><path fill="#004aad" d="M 202.566406 135.625 C 191.925781 133.078125 180.316406 134.691406 170.851562 140.222656 L 171.382812 141.128906 C 180.300781 135.933594 191.152344 134.273438 201.265625 136.367188 L 202.578125 135.625 Z M 202.566406 135.625 " fill-opacity="1" fill-rule="nonzero"/><path fill="#004aad" d="M 205.335938 134.023438 C 193.542969 130.535156 180.355469 132.046875 169.742188 138.285156 L 170.273438 139.191406 C 180.308594 133.3125 192.707031 131.738281 203.925781 134.746094 L 205.34375 134.023438 Z M 205.335938 134.023438 " fill-opacity="1" fill-rule="nonzero"/><path fill="#aa068b" d="M 237.996094 177.675781 L 236.945312 177.675781 C 237 164.910156 231.1875 152.300781 221.394531 143.933594 L 221.230469 143.789062 L 221.210938 143.578125 C 221.113281 142.449219 220.882812 141.398438 220.644531 140.289062 L 220.316406 138.835938 C 220.074219 137.824219 219.832031 136.773438 219.496094 135.816406 C 204.339844 125.722656 183.5 125.203125 167.582031 134.535156 L 167.054688 133.628906 C 183.363281 124.066406 204.738281 124.625 220.226562 135.035156 L 220.371094 135.132812 L 220.429688 135.289062 C 220.824219 136.339844 221.097656 137.484375 221.355469 138.59375 L 221.695312 140.070312 C 221.925781 141.140625 222.144531 142.160156 222.261719 143.269531 C 232.191406 151.828125 238.070312 164.679688 238.015625 177.664062 Z M 237.996094 177.675781 " fill-opacity="1" fill-rule="nonzero"/><path fill="#aa068b" d="M 222.925781 146.5 L 221.257812 144.984375 L 218.867188 147.703125 L 220.390625 149.09375 Z M 222.925781 146.5 " fill-opacity="1" fill-rule="nonzero"/><path fill="#aa068b" d="M 226.128906 149.949219 L 224.613281 148.28125 L 221.945312 150.730469 L 223.332031 152.253906 Z M 226.128906 149.949219 " fill-opacity="1" fill-rule="nonzero"/><path fill="#aa068b" d="M 228.902344 153.746094 C 228.539062 153.09375 228.027344 152.535156 227.59375 151.917969 L 224.671875 154.054688 C 225.066406 154.625 225.539062 155.125 225.878906 155.734375 L 228.902344 153.738281 Z M 228.902344 153.746094 " fill-opacity="1" fill-rule="nonzero"/><path fill="#aa068b" d="M 231.265625 157.824219 C 230.96875 157.132812 230.589844 156.484375 230.1875 155.847656 L 227.054688 157.671875 C 227.429688 158.25 227.777344 158.847656 228.046875 159.484375 L 231.265625 157.835938 Z M 231.265625 157.824219 " fill-opacity="1" fill-rule="nonzero"/><path fill="#aa068b" d="M 233.175781 162.125 C 232.90625 161.421875 232.691406 160.699219 232.335938 160.042969 L 229.019531 161.507812 C 229.355469 162.117188 229.539062 162.78125 229.792969 163.417969 Z M 233.175781 162.125 " fill-opacity="1" fill-rule="nonzero"/><path fill="#aa068b" d="M 234.601562 166.597656 C 234.398438 165.875 234.253906 165.132812 234.011719 164.429688 L 230.5625 165.527344 C 230.785156 166.175781 230.910156 166.859375 231.09375 167.523438 L 234.59375 166.609375 Z M 234.601562 166.597656 " fill-opacity="1" fill-rule="nonzero"/><path fill="#aa068b" d="M 235.546875 171.207031 L 235.207031 168.980469 L 231.660156 169.703125 L 231.96875 171.746094 Z M 235.546875 171.207031 " fill-opacity="1" fill-rule="nonzero"/><path fill="#aa068b" d="M 235.988281 175.890625 L 235.875 173.644531 L 232.269531 173.972656 L 232.375 176.046875 Z M 235.988281 175.890625 " fill-opacity="1" fill-rule="nonzero"/><path fill="#aa068b" d="M 240.058594 175.726562 C 239.625 162.886719 233.617188 150.375 223.949219 141.917969 L 225.355469 140.320312 C 235.460938 149.140625 241.734375 162.222656 242.1875 175.640625 Z M 240.058594 175.726562 " fill-opacity="1" fill-rule="nonzero"/><path fill="#004aad" d="M 249.101562 177.675781 C 249.070312 163.785156 243.730469 149.96875 234.445312 139.769531 L 234.109375 139.402344 L 234.207031 138.910156 C 234.503906 137.359375 234.765625 135.757812 234.976562 134.148438 C 235.113281 132.703125 235.207031 131.132812 235.265625 129.378906 C 235.324219 127.402344 235.324219 125.800781 235.277344 124.335938 C 235.171875 122.734375 235.015625 121.03125 234.804688 119.304688 L 236.769531 119.0625 C 236.984375 120.828125 237.148438 122.5625 237.253906 124.230469 C 237.308594 125.761719 237.300781 127.410156 237.253906 129.4375 C 237.195312 131.238281 237.089844 132.859375 236.953125 134.371094 C 236.75 135.886719 236.519531 137.359375 236.25 138.796875 C 245.660156 149.3125 251.058594 163.457031 251.09375 177.664062 L 249.121094 177.664062 Z M 249.101562 177.675781 " fill-opacity="1" fill-rule="nonzero"/><path fill="#004aad" d="M 238.128906 134.363281 C 249.167969 145.890625 255.480469 161.699219 255.460938 177.675781 L 253.488281 177.675781 C 253.457031 162.734375 247.800781 147.953125 237.761719 136.898438 Z M 238.128906 134.363281 " fill-opacity="1" fill-rule="nonzero"/><path fill="#004aad" d="M 238.785156 129.039062 C 245.359375 135.277344 250.671875 142.863281 254.257812 151.195312 C 257.863281 159.523438 259.695312 168.601562 259.695312 177.675781 L 257.71875 177.675781 C 257.765625 160.59375 250.777344 143.675781 238.679688 131.625 C 238.738281 130.765625 238.765625 129.917969 238.796875 129.039062 Z M 238.785156 129.039062 " fill-opacity="1" fill-rule="nonzero"/><path fill="#aa068b" d="M 267.820312 177.683594 C 267.65625 163.273438 263.792969 149.660156 256.648438 138.324219 C 255.375 136.039062 253.785156 133.945312 252.242188 131.921875 C 251.710938 131.21875 251.183594 130.523438 250.660156 129.8125 L 247.210938 125.996094 C 246.074219 124.664062 244.78125 123.488281 243.558594 122.390625 C 239.046875 118.070312 233.472656 114.164062 226.984375 110.753906 C 224.914062 111.457031 222.878906 112.238281 220.914062 113.058594 C 219.167969 113.839844 217.316406 114.792969 214.9375 116.121094 L 214.539062 116.34375 L 214.117188 116.191406 C 196.234375 109.796875 175.96875 111.679688 159.898438 121.210938 L 158.886719 119.507812 C 175.335938 109.761719 196.03125 107.773438 214.355469 114.175781 C 216.613281 112.921875 218.40625 112.007812 220.132812 111.234375 C 222.28125 110.328125 224.507812 109.492188 226.753906 108.738281 L 227.148438 108.601562 L 227.527344 108.796875 C 234.339844 112.34375 240.183594 116.421875 244.898438 120.921875 C 246.148438 122.042969 247.492188 123.265625 248.695312 124.671875 L 252.195312 128.546875 C 252.773438 129.328125 253.292969 130.015625 253.824219 130.707031 C 255.40625 132.789062 257.035156 134.941406 258.355469 137.300781 C 265.671875 148.898438 269.632812 162.867188 269.808594 177.644531 L 267.832031 177.664062 Z M 267.820312 177.683594 " fill-opacity="1" fill-rule="nonzero"/><path fill="#aa068b" d="M 209.652344 116.488281 L 211.242188 116.894531 C 211.765625 117.058594 212.273438 117.261719 212.785156 117.445312 L 210.605469 123.910156 C 210.144531 123.746094 209.699219 123.554688 209.230469 123.410156 L 207.8125 123.054688 L 209.652344 116.480469 Z M 209.652344 116.488281 " fill-opacity="1" fill-rule="nonzero"/><path fill="#aa068b" d="M 202.953125 115.015625 C 204.03125 115.207031 205.132812 115.265625 206.183594 115.601562 L 204.71875 122.273438 C 203.78125 121.972656 202.800781 121.925781 201.835938 121.753906 Z M 202.953125 115.015625 " fill-opacity="1" fill-rule="nonzero"/><path fill="#aa068b" d="M 196.136719 114.261719 C 197.226562 114.339844 198.335938 114.320312 199.414062 114.464844 L 198.683594 121.25 C 197.71875 121.117188 196.726562 121.144531 195.75 121.078125 Z M 196.136719 114.261719 " fill-opacity="1" fill-rule="nonzero"/><path fill="#aa068b" d="M 189.273438 114.242188 L 192.550781 114.078125 L 192.542969 120.902344 L 189.609375 121.058594 Z M 189.273438 114.242188 " fill-opacity="1" fill-rule="nonzero"/><path fill="#aa068b" d="M 182.4375 114.945312 L 185.6875 114.445312 L 186.410156 121.242188 L 183.507812 121.695312 Z M 182.4375 114.945312 " fill-opacity="1" fill-rule="nonzero"/><path fill="#aa068b" d="M 175.738281 116.382812 L 178.910156 115.5625 L 180.367188 122.234375 L 177.53125 122.96875 Z M 175.738281 116.382812 " fill-opacity="1" fill-rule="nonzero"/><path fill="#aa068b" d="M 169.222656 118.53125 L 172.308594 117.394531 L 174.464844 123.875 L 171.71875 124.886719 Z M 169.222656 118.53125 " fill-opacity="1" fill-rule="nonzero"/><path fill="#aa068b" d="M 162.976562 121.367188 L 165.933594 119.941406 L 168.789062 126.140625 L 166.148438 127.410156 Z M 162.976562 121.367188 " fill-opacity="1" fill-rule="nonzero"/><path fill="#aa068b" d="M 159.398438 114.570312 C 176.402344 105.597656 197.042969 103.984375 215.234375 110.183594 L 216.515625 106.375 C 197.285156 99.832031 175.507812 101.527344 157.519531 111.011719 L 159.390625 114.570312 Z M 159.398438 114.570312 " fill-opacity="1" fill-rule="nonzero"/><path fill="#004aad" d="M 120.703125 170.222656 L 119.546875 168.613281 C 122.054688 166.808594 125.050781 164.726562 128.269531 163.003906 C 130.777344 161.730469 133.726562 160.304688 136.871094 159.183594 C 141.1875 145.832031 150.769531 134.101562 163.207031 126.957031 L 164.191406 128.675781 C 152.035156 135.664062 142.703125 147.171875 138.605469 160.253906 L 138.449219 160.738281 L 137.980469 160.902344 C 134.769531 162 131.730469 163.476562 129.175781 164.765625 C 126.082031 166.425781 123.152344 168.457031 120.695312 170.222656 Z M 120.703125 170.222656 " fill-opacity="1" fill-rule="nonzero"/><path fill="#004aad" d="M 132.097656 159.78125 C 136.589844 144.484375 147.175781 131.101562 161.007812 123.167969 L 162 124.886719 C 149.09375 132.308594 138.953125 144.609375 134.46875 158.839844 C 133.640625 159.128906 132.859375 159.445312 132.109375 159.792969 Z M 132.097656 159.78125 " fill-opacity="1" fill-rule="nonzero"/><path fill="#004aad" d="M 127.210938 161.894531 C 131.394531 144.222656 143.164062 128.558594 158.898438 119.515625 L 159.890625 121.230469 C 145.101562 129.726562 133.910156 144.234375 129.554688 160.71875 Z M 127.210938 161.894531 " fill-opacity="1" fill-rule="nonzero"/><path fill="#aa068b" d="M 158.898438 235.84375 C 141.988281 226.058594 129.917969 209.128906 126.527344 190.476562 C 122.148438 187.816406 118.59375 185.183594 115.660156 182.445312 L 115.382812 182.175781 L 115.351562 181.792969 C 114.890625 175.3125 115.460938 168.410156 117.089844 160.6875 L 118.410156 155.558594 C 118.71875 154.382812 119.140625 153.257812 119.554688 152.15625 C 119.757812 151.617188 119.960938 151.066406 120.152344 150.519531 C 120.945312 148.058594 122.101562 145.726562 123.210938 143.472656 C 123.644531 142.605469 124.066406 141.726562 124.484375 140.847656 C 128.386719 134.035156 132.503906 128.460938 137.109375 123.757812 C 137.890625 122.878906 138.789062 122.082031 139.65625 121.308594 C 140.089844 120.921875 140.523438 120.539062 140.9375 120.132812 C 142.347656 118.832031 143.617188 117.683594 145.0625 116.671875 L 149.25 113.558594 L 153.808594 110.773438 L 154.839844 112.460938 L 150.355469 115.1875 L 146.222656 118.261719 C 144.851562 119.21875 143.628906 120.324219 142.289062 121.558594 C 141.863281 121.964844 141.410156 122.359375 140.96875 122.765625 C 140.101562 123.535156 139.28125 124.269531 138.546875 125.097656 C 134.027344 129.714844 130.007812 135.152344 126.226562 141.746094 C 125.851562 142.566406 125.40625 143.453125 124.972656 144.328125 C 123.894531 146.519531 122.765625 148.792969 122.015625 151.125 C 121.8125 151.703125 121.601562 152.261719 121.398438 152.824219 C 120.984375 153.921875 120.597656 154.953125 120.316406 156.03125 L 119.007812 161.113281 C 117.464844 168.449219 116.894531 175.050781 117.292969 181.230469 C 120.152344 183.863281 123.644531 186.398438 127.925781 188.984375 L 128.308594 189.214844 L 128.386719 189.65625 C 131.558594 207.914062 143.339844 224.527344 159.882812 234.097656 L 158.886719 235.8125 Z M 158.898438 235.84375 " fill-opacity="1" fill-rule="nonzero"/><path fill="#aa068b" d="M 130.914062 193.398438 C 130.652344 192.335938 130.335938 191.285156 130.121094 190.214844 L 136.8125 188.875 C 137.003906 189.832031 137.292969 190.765625 137.527344 191.71875 L 130.914062 193.40625 Z M 130.914062 193.398438 " fill-opacity="1" fill-rule="nonzero"/><path fill="#aa068b" d="M 132.964844 199.945312 L 131.828125 196.859375 L 138.34375 194.804688 L 139.355469 197.542969 Z M 132.964844 199.945312 " fill-opacity="1" fill-rule="nonzero"/><path fill="#aa068b" d="M 135.703125 206.230469 L 134.277344 203.269531 L 140.523438 200.523438 L 141.804688 203.152344 Z M 135.703125 206.230469 " fill-opacity="1" fill-rule="nonzero"/><path fill="#aa068b" d="M 139.105469 212.1875 L 137.398438 209.382812 L 143.308594 205.96875 L 144.832031 208.476562 Z M 139.105469 212.1875 " fill-opacity="1" fill-rule="nonzero"/><path fill="#aa068b" d="M 143.117188 217.757812 L 141.160156 215.125 L 146.664062 211.097656 L 148.417969 213.449219 Z M 143.117188 217.757812 " fill-opacity="1" fill-rule="nonzero"/><path fill="#aa068b" d="M 147.726562 222.859375 C 146.945312 222.085938 146.242188 221.246094 145.5 220.449219 L 150.550781 215.847656 C 151.214844 216.5625 151.839844 217.324219 152.535156 218.007812 L 147.734375 222.859375 Z M 147.726562 222.859375 " fill-opacity="1" fill-rule="nonzero"/><path fill="#aa068b" d="M 152.882812 227.398438 C 151.976562 226.78125 151.203125 225.992188 150.386719 225.269531 L 154.90625 220.160156 C 155.640625 220.804688 156.3125 221.519531 157.132812 222.066406 L 152.871094 227.40625 Z M 152.882812 227.398438 " fill-opacity="1" fill-rule="nonzero"/><path fill="#aa068b" d="M 158.484375 231.359375 C 157.539062 230.8125 156.601562 230.234375 155.753906 229.539062 L 159.707031 223.964844 C 160.46875 224.59375 161.296875 225.105469 162.148438 225.59375 L 158.492188 231.359375 Z M 158.484375 231.359375 " fill-opacity="1" fill-rule="nonzero"/><path fill="#aa068b" d="M 154.367188 237.847656 C 138.125 227.640625 126.246094 210.625 122.59375 191.71875 L 118.648438 192.511719 C 122.515625 212.496094 135.058594 230.464844 152.207031 241.25 L 154.367188 237.859375 Z M 154.367188 237.847656 " fill-opacity="1" fill-rule="nonzero"/><path fill="#004aad" d="M 221.113281 245.386719 C 218.320312 244.199219 215.390625 242.695312 211.898438 240.632812 C 209.480469 239.121094 206.992188 237.296875 204.285156 235.0625 C 190.265625 237.867188 175.324219 235.449219 163.207031 228.382812 L 164.199219 226.664062 C 176.039062 233.558594 190.671875 235.882812 204.351562 233.019531 L 204.824219 232.921875 L 205.191406 233.230469 C 207.976562 235.554688 210.5 237.414062 212.929688 238.929688 C 216.324219 240.921875 219.175781 242.398438 221.894531 243.554688 L 221.125 245.378906 Z M 221.113281 245.386719 " fill-opacity="1" fill-rule="nonzero"/><path fill="#004aad" d="M 207.164062 238.878906 C 191.675781 242.582031 174.785156 240.238281 161.007812 232.191406 L 162 230.472656 C 174.890625 237.972656 190.554688 240.375 205.171875 237.347656 L 207.164062 238.871094 Z M 207.164062 238.878906 " fill-opacity="1" fill-rule="nonzero"/><path fill="#004aad" d="M 211.457031 242.128906 C 202.75 244.683594 193.535156 245.433594 184.53125 244.375 C 175.527344 243.324219 166.746094 240.394531 158.90625 235.832031 L 159.898438 234.117188 C 174.621094 242.746094 192.8125 245.050781 209.257812 240.644531 L 211.457031 242.117188 Z M 211.457031 242.128906 " fill-opacity="1" fill-rule="nonzero"/><path fill="#aa068b" d="M 192.6875 254.980469 C 191.644531 254.980469 190.605469 254.921875 189.582031 254.863281 L 189.214844 254.84375 C 188.636719 254.804688 188.078125 254.785156 187.507812 254.757812 C 186.332031 254.707031 185.117188 254.652344 183.914062 254.496094 C 183.144531 254.371094 182.398438 254.265625 181.65625 254.160156 C 178.949219 253.765625 176.152344 253.359375 173.445312 252.550781 C 167.109375 251.066406 160.496094 248.386719 153.847656 244.597656 L 154.828125 242.878906 C 161.316406 246.574219 167.746094 249.183594 173.957031 250.640625 C 176.578125 251.421875 179.304688 251.828125 181.945312 252.203125 C 182.699219 252.308594 183.441406 252.425781 184.195312 252.539062 C 185.292969 252.675781 186.46875 252.734375 187.597656 252.78125 C 188.175781 252.808594 188.753906 252.828125 189.320312 252.867188 L 189.6875 252.886719 C 191.316406 252.972656 192.859375 253.058594 194.410156 252.925781 L 199.675781 252.65625 C 200.785156 252.558594 201.921875 252.375 203.058594 252.191406 C 203.636719 252.105469 204.207031 252.007812 204.773438 251.933594 L 207.347656 251.527344 C 207.871094 251.429688 208.398438 251.296875 208.929688 251.160156 L 214.886719 249.617188 C 222.050781 247.191406 228.066406 244.375 233.195312 241.019531 C 233.609375 239.238281 233.832031 237.296875 234.050781 235.429688 L 234.195312 234.164062 C 234.398438 232.054688 234.601562 230.050781 234.542969 227.949219 L 234.542969 227.476562 C 234.542969 227.476562 234.890625 227.167969 234.890625 227.167969 C 241.976562 221.054688 247.789062 213.363281 251.695312 204.90625 C 255.617188 196.445312 257.699219 187.027344 257.707031 177.675781 L 259.683594 177.675781 C 259.683594 187.304688 257.535156 197.011719 253.488281 205.738281 C 249.535156 214.296875 243.671875 222.117188 236.539062 228.363281 C 236.558594 230.414062 236.375 232.335938 236.183594 234.359375 L 236.039062 235.648438 C 235.796875 237.714844 235.546875 239.851562 235.046875 241.859375 L 234.949219 242.234375 L 234.628906 242.445312 C 229.289062 245.992188 223.023438 248.953125 215.476562 251.507812 L 209.449219 253.070312 C 208.871094 253.222656 208.292969 253.367188 207.695312 253.476562 L 205.082031 253.890625 C 204.503906 253.964844 203.945312 254.0625 203.378906 254.148438 C 202.191406 254.332031 201.015625 254.515625 199.820312 254.632812 L 194.546875 254.902344 C 193.929688 254.949219 193.304688 254.980469 192.6875 254.980469 Z M 192.6875 254.980469 " fill-opacity="1" fill-rule="nonzero"/><path fill="#aa068b" d="M 236.886719 223.15625 L 234.457031 225.363281 L 229.945312 220.246094 L 232.113281 218.269531 Z M 236.886719 223.15625 " fill-opacity="1" fill-rule="nonzero"/><path fill="#aa068b" d="M 241.5625 218.125 L 239.355469 220.554688 L 234.3125 215.945312 L 236.296875 213.777344 Z M 241.5625 218.125 " fill-opacity="1" fill-rule="nonzero"/><path fill="#aa068b" d="M 245.609375 212.570312 C 245.082031 213.535156 244.328125 214.34375 243.703125 215.242188 L 238.195312 211.203125 C 238.757812 210.402344 239.441406 209.679688 239.902344 208.820312 Z M 245.609375 212.570312 " fill-opacity="1" fill-rule="nonzero"/><path fill="#aa068b" d="M 249.050781 206.632812 C 248.8125 207.125 248.589844 207.625 248.328125 208.109375 L 247.472656 209.507812 L 241.5625 206.085938 L 242.332031 204.832031 C 242.5625 204.40625 242.757812 203.953125 242.96875 203.511719 L 249.042969 206.625 Z M 249.050781 206.632812 " fill-opacity="1" fill-rule="nonzero"/><path fill="#aa068b" d="M 251.839844 200.367188 C 251.453125 201.390625 251.132812 202.441406 250.613281 203.414062 L 244.375 200.648438 C 244.847656 199.789062 245.117188 198.84375 245.464844 197.929688 Z M 251.839844 200.367188 " fill-opacity="1" fill-rule="nonzero"/><path fill="#aa068b" d="M 253.921875 193.832031 C 253.632812 194.882812 253.417969 195.960938 253.0625 197.003906 L 246.554688 194.929688 C 246.875 194.003906 247.046875 193.042969 247.316406 192.105469 L 253.921875 193.839844 Z M 253.921875 193.832031 " fill-opacity="1" fill-rule="nonzero"/><path fill="#aa068b" d="M 255.296875 187.113281 L 254.808594 190.359375 L 248.117188 189 L 248.542969 186.109375 Z M 255.296875 187.113281 " fill-opacity="1" fill-rule="nonzero"/><path fill="#aa068b" d="M 255.945312 180.277344 L 255.78125 183.566406 L 248.984375 182.9375 L 249.121094 179.996094 Z M 255.945312 180.277344 " fill-opacity="1" fill-rule="nonzero"/><path fill="#aa068b" d="M 263.609375 180.585938 C 263.242188 190.160156 260.898438 199.671875 256.753906 208.332031 C 252.628906 216.988281 246.71875 224.785156 239.527344 231.128906 L 242.1875 234.144531 C 249.785156 227.445312 256.023438 219.214844 260.378906 210.066406 C 264.753906 200.925781 267.234375 190.863281 267.628906 180.75 Z M 263.609375 180.585938 " fill-opacity="1" fill-rule="nonzero"/><path fill="#aa068b" d="M 106.917969 126.929688 L 32.226562 126.929688 L 18.796875 113.5 L 21.691406 110.609375 L 33.921875 122.832031 L 106.917969 122.832031 Z M 106.917969 126.929688 " fill-opacity="1" fill-rule="nonzero"/><path fill="#aa068b" d="M 106.484375 116.160156 C 101.675781 116.160156 97.769531 120.074219 97.769531 124.875 C 97.769531 129.675781 101.683594 133.589844 106.484375 133.589844 C 111.285156 133.589844 115.199219 129.675781 115.199219 124.875 C 115.199219 120.074219 111.285156 116.160156 106.484375 116.160156 C 101.683594 116.160156 111.296875 116.160156 106.484375 116.160156 Z M 106.484375 131.546875 C 102.800781 131.546875 99.8125 128.558594 99.8125 124.875 C 99.8125 121.195312 102.800781 118.203125 106.484375 118.203125 C 110.167969 118.203125 113.15625 121.195312 113.15625 124.875 C 113.15625 128.558594 110.167969 131.546875 106.484375 131.546875 C 102.800781 131.546875 110.167969 131.546875 106.484375 131.546875 Z M 106.484375 131.546875 " fill-opacity="1" fill-rule="nonzero"/><path fill="#aa068b" d="M 25.949219 106.878906 C 22.945312 103.871094 18.074219 103.871094 15.066406 106.878906 C 12.058594 109.886719 12.058594 114.753906 15.066406 117.761719 C 18.074219 120.769531 22.945312 120.769531 25.949219 117.761719 C 28.957031 114.753906 28.957031 109.886719 25.949219 106.878906 Z M 25.949219 106.878906 " fill-opacity="1" fill-rule="nonzero"/><path fill="#aa068b" d="M 259.136719 108.296875 L 256.242188 105.402344 L 271.851562 89.785156 L 333.277344 89.785156 L 364.328125 58.746094 L 367.21875 61.636719 L 334.972656 93.882812 L 273.546875 93.882812 Z M 259.136719 108.296875 " fill-opacity="1" fill-rule="nonzero"/><path fill="#aa068b" d="M 264.15625 112.699219 C 267.5625 109.308594 267.5625 103.773438 264.15625 100.371094 C 260.753906 96.976562 255.230469 96.976562 251.828125 100.371094 C 248.425781 103.773438 248.425781 109.296875 251.828125 112.699219 C 255.222656 116.09375 260.753906 116.101562 264.15625 112.699219 C 267.5625 109.308594 260.753906 116.101562 264.15625 112.699219 Z M 253.273438 101.816406 C 255.878906 99.214844 260.109375 99.214844 262.710938 101.816406 C 265.316406 104.417969 265.316406 108.652344 262.710938 111.253906 C 260.109375 113.855469 255.878906 113.855469 253.273438 111.253906 C 250.671875 108.652344 250.671875 104.417969 253.273438 101.816406 C 255.878906 99.214844 250.671875 104.417969 253.273438 101.816406 Z M 253.273438 101.816406 " fill-opacity="1" fill-rule="nonzero"/><path fill="#aa068b" d="M 370.941406 65.90625 C 373.949219 62.898438 373.949219 58.03125 370.941406 55.023438 C 367.933594 52.015625 363.066406 52.015625 360.058594 55.023438 C 357.050781 58.03125 357.050781 62.898438 360.058594 65.90625 C 363.066406 68.914062 367.933594 68.914062 370.941406 65.90625 Z M 370.941406 65.90625 " fill-opacity="1" fill-rule="nonzero"/><path fill="#aa068b" d="M 149.488281 92.136719 L 132.753906 75.402344 L 81.863281 75.402344 L 61.011719 54.550781 L 63.914062 51.660156 L 83.558594 71.316406 L 134.449219 71.316406 L 152.382812 89.238281 Z M 149.488281 92.136719 " fill-opacity="1" fill-rule="nonzero"/><path fill="#aa068b" d="M 156.785156 84.214844 C 153.394531 80.820312 147.859375 80.820312 144.457031 84.214844 C 141.0625 87.605469 141.0625 93.140625 144.457031 96.542969 C 147.859375 99.945312 153.382812 99.945312 156.785156 96.542969 C 160.179688 93.148438 160.191406 87.617188 156.785156 84.214844 C 153.382812 80.8125 160.191406 87.617188 156.785156 84.214844 Z M 145.902344 95.097656 C 143.300781 92.496094 143.300781 88.261719 145.902344 85.660156 C 148.503906 83.058594 152.738281 83.058594 155.339844 85.660156 C 157.945312 88.261719 157.945312 92.496094 155.339844 95.097656 C 152.738281 97.699219 148.503906 97.699219 145.902344 95.097656 C 143.300781 92.496094 148.503906 97.699219 145.902344 95.097656 Z M 145.902344 95.097656 " fill-opacity="1" fill-rule="nonzero"/><path fill="#aa068b" d="M 68.175781 47.9375 C 65.167969 44.929688 60.300781 44.929688 57.292969 47.9375 C 54.285156 50.945312 54.285156 55.8125 57.292969 58.820312 C 60.300781 61.828125 65.167969 61.828125 68.175781 58.820312 C 71.183594 55.8125 71.183594 50.945312 68.175781 47.9375 Z M 68.175781 47.9375 " fill-opacity="1" fill-rule="nonzero"/><path fill="#aa068b" d="M 214.464844 79.453125 L 211.570312 76.558594 L 231.238281 56.894531 L 231.238281 21.785156 L 235.335938 21.785156 L 235.335938 58.589844 Z M 214.464844 79.453125 " fill-opacity="1" fill-rule="nonzero"/><path fill="#aa068b" d="M 219.484375 83.867188 C 222.878906 80.472656 222.878906 74.941406 219.484375 71.539062 C 216.09375 68.144531 210.558594 68.144531 207.15625 71.539062 C 203.753906 74.941406 203.753906 80.464844 207.15625 83.867188 C 210.558594 87.269531 216.082031 87.269531 219.484375 83.867188 C 222.878906 80.472656 216.082031 87.269531 219.484375 83.867188 Z M 208.601562 72.984375 C 211.203125 70.378906 215.4375 70.378906 218.039062 72.984375 C 220.644531 75.585938 220.644531 79.816406 218.039062 82.421875 C 215.4375 85.023438 211.203125 85.023438 208.601562 82.421875 C 206 79.816406 206 75.585938 208.601562 72.984375 C 211.203125 70.378906 206 75.585938 208.601562 72.984375 Z M 208.601562 72.984375 " fill-opacity="1" fill-rule="nonzero"/><g clip-path="url(#0b6b442a0a)"><path fill="#aa068b" d="M 240.972656 22.171875 C 240.972656 22.675781 240.925781 23.175781 240.824219 23.671875 C 240.726562 24.167969 240.582031 24.648438 240.386719 25.113281 C 240.195312 25.582031 239.957031 26.023438 239.675781 26.445312 C 239.394531 26.863281 239.078125 27.253906 238.71875 27.609375 C 238.363281 27.96875 237.976562 28.285156 237.554688 28.566406 C 237.132812 28.847656 236.691406 29.085938 236.226562 29.277344 C 235.757812 29.472656 235.277344 29.617188 234.78125 29.714844 C 234.285156 29.8125 233.785156 29.863281 233.28125 29.863281 C 232.777344 29.863281 232.277344 29.8125 231.78125 29.714844 C 231.285156 29.617188 230.804688 29.472656 230.335938 29.277344 C 229.871094 29.085938 229.425781 28.847656 229.007812 28.566406 C 228.585938 28.285156 228.199219 27.96875 227.839844 27.609375 C 227.484375 27.253906 227.164062 26.863281 226.882812 26.445312 C 226.605469 26.023438 226.367188 25.582031 226.171875 25.113281 C 225.980469 24.648438 225.835938 24.167969 225.734375 23.671875 C 225.636719 23.175781 225.589844 22.675781 225.589844 22.171875 C 225.589844 21.664062 225.636719 21.164062 225.734375 20.667969 C 225.835938 20.175781 225.980469 19.691406 226.171875 19.226562 C 226.367188 18.757812 226.605469 18.316406 226.882812 17.894531 C 227.164062 17.476562 227.484375 17.085938 227.839844 16.730469 C 228.199219 16.375 228.585938 16.054688 229.007812 15.773438 C 229.425781 15.492188 229.871094 15.257812 230.335938 15.0625 C 230.804688 14.871094 231.285156 14.722656 231.78125 14.625 C 232.277344 14.527344 232.777344 14.476562 233.28125 14.476562 C 233.785156 14.476562 234.285156 14.527344 234.78125 14.625 C 235.277344 14.722656 235.757812 14.871094 236.226562 15.0625 C 236.691406 15.257812 237.132812 15.492188 237.554688 15.773438 C 237.976562 16.054688 238.363281 16.375 238.71875 16.730469 C 239.078125 17.085938 239.394531 17.476562 239.675781 17.894531 C 239.957031 18.316406 240.195312 18.757812 240.386719 19.226562 C 240.582031 19.691406 240.726562 20.175781 240.824219 20.667969 C 240.925781 21.164062 240.972656 21.664062 240.972656 22.171875 Z M 240.972656 22.171875 " fill-opacity="1" fill-rule="nonzero"/></g><path fill="#aa068b" d="M 365.390625 204.734375 L 331.6875 171.03125 L 289.03125 171.03125 L 289.03125 166.9375 L 333.375 166.9375 L 368.28125 201.84375 Z M 365.390625 204.734375 " fill-opacity="1" fill-rule="nonzero"/><path fill="#aa068b" d="M 289.464844 177.703125 C 294.273438 177.703125 298.179688 173.789062 298.179688 168.988281 C 298.179688 164.1875 294.265625 160.273438 289.464844 160.273438 C 284.664062 160.273438 280.75 164.1875 280.75 168.988281 C 280.75 173.789062 284.664062 177.703125 289.464844 177.703125 C 294.265625 177.703125 284.652344 177.703125 289.464844 177.703125 Z M 289.464844 162.316406 C 293.144531 162.316406 296.132812 165.304688 296.132812 168.988281 C 296.132812 172.671875 293.144531 175.660156 289.464844 175.660156 C 285.78125 175.660156 282.792969 172.671875 282.792969 168.988281 C 282.792969 165.304688 285.78125 162.316406 289.464844 162.316406 C 293.144531 162.316406 285.78125 162.316406 289.464844 162.316406 Z M 289.464844 162.316406 " fill-opacity="1" fill-rule="nonzero"/><path fill="#aa068b" d="M 361.117188 208.457031 C 364.125 211.464844 368.996094 211.464844 372 208.457031 C 375.007812 205.449219 375.007812 200.578125 372 197.570312 C 368.996094 194.5625 364.125 194.5625 361.117188 197.570312 C 358.109375 200.578125 358.109375 205.449219 361.117188 208.457031 Z M 361.117188 208.457031 " fill-opacity="1" fill-rule="nonzero"/><path fill="#aa068b" d="M 363.632812 238.492188 L 304.859375 238.492188 L 282.492188 216.128906 L 285.386719 213.238281 L 306.554688 234.40625 L 363.632812 234.40625 Z M 363.632812 238.492188 " fill-opacity="1" fill-rule="nonzero"/><path fill="#aa068b" d="M 278.078125 221.152344 C 281.480469 224.542969 287.003906 224.542969 290.40625 221.152344 C 293.800781 217.757812 293.800781 212.226562 290.40625 208.820312 C 287.003906 205.417969 281.480469 205.417969 278.078125 208.820312 C 274.683594 212.214844 274.675781 217.75 278.078125 221.152344 C 281.480469 224.542969 274.675781 217.75 278.078125 221.152344 Z M 288.960938 210.269531 C 291.566406 212.871094 291.566406 217.101562 288.960938 219.707031 C 286.359375 222.308594 282.128906 222.308594 279.523438 219.707031 C 276.921875 217.101562 276.921875 212.871094 279.523438 210.269531 C 282.128906 207.664062 286.359375 207.664062 288.960938 210.269531 C 291.566406 212.871094 286.359375 207.664062 288.960938 210.269531 Z M 288.960938 210.269531 " fill-opacity="1" fill-rule="nonzero"/><path fill="#aa068b" d="M 363.25 244.144531 C 367.5 244.144531 370.941406 240.703125 370.941406 236.449219 C 370.941406 232.199219 367.5 228.757812 363.25 228.757812 C 358.996094 228.757812 355.554688 232.199219 355.554688 236.449219 C 355.554688 240.703125 358.996094 244.144531 363.25 244.144531 Z M 363.25 244.144531 " fill-opacity="1" fill-rule="nonzero"/><path fill="#aa068b" d="M 20.457031 207.007812 L 7.289062 207.007812 L 7.289062 202.914062 L 18.757812 202.914062 L 51.980469 169.703125 L 88.84375 169.703125 L 88.84375 173.789062 L 53.667969 173.789062 Z M 20.457031 207.007812 " fill-opacity="1" fill-rule="nonzero"/><path fill="#aa068b" d="M 88.410156 163.03125 C 83.597656 163.03125 79.695312 166.945312 79.695312 171.746094 C 79.695312 176.546875 83.609375 180.460938 88.410156 180.460938 C 93.210938 180.460938 97.125 176.546875 97.125 171.746094 C 97.125 166.945312 93.210938 163.03125 88.410156 163.03125 C 83.609375 163.03125 93.21875 163.03125 88.410156 163.03125 Z M 88.410156 178.417969 C 84.726562 178.417969 81.738281 175.429688 81.738281 171.746094 C 81.738281 168.0625 84.726562 165.074219 88.410156 165.074219 C 92.09375 165.074219 95.082031 168.0625 95.082031 171.746094 C 95.082031 175.429688 92.09375 178.417969 88.410156 178.417969 C 84.726562 178.417969 92.09375 178.417969 88.410156 178.417969 Z M 88.410156 178.417969 " fill-opacity="1" fill-rule="nonzero"/><path fill="#aa068b" d="M 7.671875 197.261719 C 3.421875 197.261719 -0.0195312 200.703125 -0.0195312 204.957031 C -0.0195312 209.207031 3.421875 212.648438 7.671875 212.648438 C 11.925781 212.648438 15.367188 209.207031 15.367188 204.957031 C 15.367188 200.703125 11.925781 197.261719 7.671875 197.261719 Z M 7.671875 197.261719 " fill-opacity="1" fill-rule="nonzero"/><path fill="#aa068b" d="M 87.945312 249.714844 L 13.6875 249.714844 L 13.6875 245.628906 L 86.25 245.628906 L 102.097656 229.78125 L 104.992188 232.671875 Z M 87.945312 249.714844 " fill-opacity="1" fill-rule="nonzero"/><path fill="#aa068b" d="M 97.074219 225.363281 C 93.683594 228.765625 93.683594 234.292969 97.074219 237.695312 C 100.480469 241.097656 106.003906 241.097656 109.40625 237.695312 C 112.808594 234.292969 112.808594 228.765625 109.40625 225.363281 C 106.011719 221.960938 100.480469 221.960938 97.074219 225.363281 C 93.683594 228.765625 100.480469 221.960938 97.074219 225.363281 Z M 107.960938 236.246094 C 105.355469 238.851562 101.125 238.851562 98.523438 236.246094 C 95.917969 233.644531 95.917969 229.414062 98.523438 226.808594 C 101.125 224.207031 105.355469 224.207031 107.960938 226.808594 C 110.5625 229.414062 110.5625 233.644531 107.960938 236.246094 C 105.355469 238.851562 110.5625 233.644531 107.960938 236.246094 Z M 107.960938 236.246094 " fill-opacity="1" fill-rule="nonzero"/><path fill="#aa068b" d="M 14.074219 239.980469 C 9.824219 239.980469 6.382812 243.421875 6.382812 247.671875 C 6.382812 251.921875 9.824219 255.363281 14.074219 255.363281 C 18.324219 255.363281 21.765625 251.921875 21.765625 247.671875 C 21.765625 243.421875 18.324219 239.980469 14.074219 239.980469 Z M 14.074219 239.980469 " fill-opacity="1" fill-rule="nonzero"/><path fill="#aa068b" d="M 85.382812 353.769531 L 82.492188 350.878906 L 110.136719 323.230469 L 110.136719 288.640625 L 133.8125 264.964844 L 136.707031 267.859375 L 114.226562 290.339844 L 114.226562 324.925781 Z M 85.382812 353.769531 " fill-opacity="1" fill-rule="nonzero"/><path fill="#aa068b" d="M 128.792969 260.550781 C 125.398438 263.953125 125.398438 269.476562 128.792969 272.878906 C 132.195312 276.285156 137.71875 276.285156 141.121094 272.878906 C 144.523438 269.476562 144.523438 263.953125 141.121094 260.550781 C 137.726562 257.148438 132.195312 257.148438 128.792969 260.550781 C 125.398438 263.953125 132.195312 257.148438 128.792969 260.550781 Z M 139.675781 271.433594 C 137.074219 274.039062 132.839844 274.039062 130.238281 271.433594 C 127.636719 268.832031 127.636719 264.597656 130.238281 261.996094 C 132.839844 259.394531 137.074219 259.394531 139.675781 261.996094 C 142.277344 264.597656 142.277344 268.832031 139.675781 271.433594 C 137.074219 274.039062 142.277344 268.832031 139.675781 271.433594 Z M 139.675781 271.433594 " fill-opacity="1" fill-rule="nonzero"/><path fill="#aa068b" d="M 78.769531 346.617188 C 75.761719 349.625 75.761719 354.492188 78.769531 357.5 C 81.777344 360.507812 86.644531 360.507812 89.652344 357.5 C 92.660156 354.492188 92.660156 349.625 89.652344 346.617188 C 86.644531 343.609375 81.777344 343.609375 78.769531 346.617188 Z M 78.769531 346.617188 " fill-opacity="1" fill-rule="nonzero"/><path fill="#aa068b" d="M 218.464844 350.183594 L 214.375 350.183594 L 214.375 300.125 L 189.582031 275.328125 L 192.472656 272.4375 L 218.464844 298.425781 Z M 218.464844 350.183594 " fill-opacity="1" fill-rule="nonzero"/><path fill="#aa068b" d="M 185.175781 280.351562 C 188.578125 283.753906 194.101562 283.753906 197.507812 280.351562 C 200.898438 276.949219 200.898438 271.425781 197.507812 268.023438 C 194.101562 264.617188 188.578125 264.617188 185.175781 268.023438 C 181.785156 271.414062 181.773438 276.949219 185.175781 280.351562 C 188.578125 283.753906 181.773438 276.949219 185.175781 280.351562 Z M 196.058594 269.46875 C 198.664062 272.070312 198.664062 276.300781 196.058594 278.90625 C 193.457031 281.507812 189.226562 281.507812 186.621094 278.90625 C 184.019531 276.300781 184.019531 272.070312 186.621094 269.46875 C 189.226562 266.863281 193.457031 266.863281 196.058594 269.46875 C 198.664062 272.070312 193.457031 266.863281 196.058594 269.46875 Z M 196.058594 269.46875 " fill-opacity="1" fill-rule="nonzero"/><path fill="#aa068b" d="M 208.726562 349.796875 C 208.726562 354.050781 212.167969 357.492188 216.421875 357.492188 C 220.671875 357.492188 224.113281 354.050781 224.113281 349.796875 C 224.113281 345.546875 220.671875 342.105469 216.421875 342.105469 C 212.167969 342.105469 208.726562 345.546875 208.726562 349.796875 Z M 208.726562 349.796875 " fill-opacity="1" fill-rule="nonzero"/><path fill="#aa068b" d="M 307.980469 308.289062 L 279.898438 280.214844 L 251.875 280.214844 L 251.875 263.257812 L 255.972656 263.257812 L 255.972656 276.128906 L 281.597656 276.128906 L 310.875 305.394531 Z M 307.980469 308.289062 " fill-opacity="1" fill-rule="nonzero"/><path fill="#aa068b" d="M 245.207031 263.695312 C 245.207031 268.503906 249.121094 272.40625 253.921875 272.40625 C 258.722656 272.40625 262.636719 268.496094 262.636719 263.695312 C 262.636719 258.894531 258.722656 254.980469 253.921875 254.980469 C 249.121094 254.980469 245.207031 258.894531 245.207031 263.695312 C 245.207031 268.496094 245.207031 258.882812 245.207031 263.695312 Z M 260.589844 263.695312 C 260.589844 267.375 257.601562 270.363281 253.921875 270.363281 C 250.238281 270.363281 247.25 267.375 247.25 263.695312 C 247.25 260.011719 250.238281 257.023438 253.921875 257.023438 C 257.601562 257.023438 260.589844 260.011719 260.589844 263.695312 C 260.589844 267.375 260.589844 260.011719 260.589844 263.695312 Z M 260.589844 263.695312 " fill-opacity="1" fill-rule="nonzero"/><path fill="#aa068b" d="M 303.710938 312.007812 C 306.71875 315.015625 311.585938 315.015625 314.59375 312.007812 C 317.601562 309 317.601562 304.132812 314.59375 301.125 C 311.585938 298.117188 306.71875 298.117188 303.710938 301.125 C 300.703125 304.132812 300.703125 309 303.710938 312.007812 Z M 303.710938 312.007812 " fill-opacity="1" fill-rule="nonzero"/><g fill="#004aad" fill-opacity="1"><g transform="translate(162.233168, 206.432327)"><g><path d="M 24.140625 0 L 16.265625 0 L 4.34375 -11.875 L 4.34375 -47.578125 L 16.265625 -59.453125 L 24.140625 -59.453125 Z M 27.28125 -47.578125 L 27.28125 -59.453125 L 48.390625 -59.453125 L 60.25 -47.578125 L 60.25 -35.609375 L 40.453125 -35.609375 L 40.453125 -47.578125 Z M 27.28125 0 L 27.28125 -11.875 L 40.453125 -11.875 L 40.453125 -20.5625 L 60.25 -20.5625 L 60.25 -11.875 L 48.390625 0 Z M 27.28125 0 "/></g></g></g></svg>